<svg width="154" height="154" viewBox="0 0 154 154" fill="none" xmlns="http://www.w3.org/2000/svg">
<g clip-path="url(#clip0_119_2)">
<rect x="0.5" y="0.5" width="153" height="153" rx="76.5" fill="white"/>
<rect x="0.5" y="0.5" width="153" height="153" rx="76.5" stroke="black"/>
<path d="M154 77C154 92.2291 149.484 107.116 141.023 119.779C132.562 132.441 120.537 142.311 106.467 148.139C92.3967 153.967 76.9146 155.491 61.9781 152.52C47.0415 149.549 33.3215 142.216 22.5528 131.447C11.7842 120.679 4.45063 106.958 1.47957 92.0219C-1.49149 77.0854 0.0333629 61.6033 5.86131 47.5334C11.6893 33.4635 21.5585 21.4377 34.2211 12.9768C46.8837 4.51597 61.7709 6.14454e-07 77 6.14453e-07C87.1122 -0.0012769 97.1255 1.98952 106.468 5.85867C115.811 9.72783 124.3 15.3996 131.45 22.5499C138.6 29.7003 144.272 38.1892 148.141 47.5319C152.011 56.8745 154.001 66.8878 154 77ZM121.739 48.4447H109.747V41.6658C109.745 40.8076 109.403 39.9853 108.796 39.3785C108.189 38.7717 107.367 38.4296 106.508 38.4271H34.0699C33.2117 38.4296 32.3894 38.7717 31.7826 39.3785C31.1758 39.9853 30.8337 40.8076 30.8312 41.6658V101.908C30.8312 103.688 30.8603 105.73 30.8895 106.45L31.0062 107.082C31.3837 109.036 32.3196 110.838 33.7006 112.271C35.0816 113.704 36.8483 114.706 38.7869 115.155L39.5261 115.33C40.4014 115.378 42.5606 115.427 44.3404 115.427H113.842C115.357 115.427 116.858 115.128 118.258 114.548C119.658 113.968 120.93 113.117 122.002 112.045C123.073 110.973 123.922 109.7 124.501 108.3C125.081 106.899 125.378 105.398 125.377 103.882V52.0725C125.372 51.1103 124.986 50.189 124.305 49.5095C123.624 48.83 122.701 48.4473 121.739 48.4447ZM97.2299 57.519H43.8055V65.2122H97.2104L97.2299 57.519ZM66.5252 74.3837H43.8152V98.7666H66.5349L66.5252 74.3837ZM96.5005 91.1317H74.909V98.8346H96.5005V91.1317ZM96.5199 74.3448H74.9284V82.038H96.5199V74.3448ZM117.664 56.1379V103.882C117.664 104.901 117.259 105.878 116.539 106.599C115.818 107.319 114.841 107.724 113.822 107.724C112.803 107.724 111.826 107.319 111.106 106.599C110.385 105.878 109.981 104.901 109.981 103.882V56.1379H117.664Z" fill="black"/>
</g>
<defs>
<clipPath id="clip0_119_2">
<rect width="154" height="154" fill="white"/>
</clipPath>
</defs>
</svg>
